# xmcd CD database file
#
# Track frame offsets:
#	150
#	14715
#	27605
#	44832
#	56800
#	78685
#	92605
#	105072
#	124727
#	138487
#
# Disc length: 2064 seconds
#
# Revision: 1
# Processed by: cddbd v1.5.1PL0 Copyright (c) Steve Scherf et al.
# Submitted via: CDex 1.51
#
DISCID=8b080e0a
DTITLE=Various Artist - Bossa Voyage Collection IV
DYEAR=2003
DGENRE=Bossa Nova
TTITLE0=Time after Time - Etienne
TTITLE1=Don't Know Why - Fantastica
TTITLE2=O Barquinho - Claudio B.
TTITLE3=You'd Be So Nice To Come Home To - Farfesta
TTITLE4=Message In A Bottle - Sonia
TTITLE5=L'amour En Prive - Didier
TTITLE6=Non Stop To Brazil - Etienne
TTITLE7=Saudade Da Bahia - Lua Crescente
TTITLE8=Samba De Verao - Angela
TTITLE9=Dindi - Farfesta
EXTD=YEAR: 2003
EXTT0=
EXTT1=
EXTT2=
EXTT3=
EXTT4=
EXTT5=
EXTT6=
EXTT7=
EXTT8=
EXTT9=
PLAYORDER=
